<svg width="256" height="256" viewBox="0 0 256 256" fill="none" xmlns="http://www.w3.org/2000/svg">
    <g clip-path="url(#clip0_1_19)">
        <path d="M128 0C198.692 0 256 57.3075 256 128C256 198.692 198.692 256 128 256C57.3075 256 0 198.692 0 128C0 57.3075 57.3075 0 128 0Z"
              fill="black"/>
        <path d="M123 72.45C140.9 72.45 156.25 77.4 168.35 86.85C178.534 94.8096 186.03 105.751 189.967 118.128L190.1 118.55L190.2 118.85L190.3 119.2L190.5 119.85L190.8 121.05L191.6 123.85L192.45 127.05L196.2 140.75L199.9 154.55L204.1 170.25L210.85 195.5L213.4 205L212.85 205.6C195.228 224.856 171.137 238.083 144.023 241.888L143.2 242L142.95 240.35L142.5 237.05L142.1 234.65L141.65 231.5L141.05 227.65L140.8 226.15L140.25 222.5L139.9 220.35L139.45 217.55L139 214.85L138.55 212.25L138.1 209.7L137.7 207.2L137.25 204.8L136.85 202.5L136.55 200.8L136.2 199.15L135.6 196L135.3 194.5L134.95 192.65L134.65 191.35L134.4 190.1L134.15 188.9L134 188.1L133.65 186.6L133.15 184.4L132.95 183.7L132.7 182.7L132.5 181.75L132.25 180.8L132 179.9L131.85 179.35L131.6 178.5L131.4 177.7L131.25 177.15L131.05 176.65L130.9 176.2L130.7 175.5L130.55 175L130.45 174.7C130.234 174.065 129.998 173.436 129.744 172.815L129.55 172.35L129.4 172.05L130.55 169.05L126 169.2L124.75 169.25C83.45 170.1 56.8 152.55 56.8 125.05C56.8 95.9 85.8 72.45 123 72.45ZM82.7 210.15C83.6354 206.95 86.946 205.059 90.1499 205.86L90.3 205.9C93.5492 206.737 95.4897 209.998 94.785 213.248L94.75 213.4L94.7 213.55L88.65 236.1L87.8 235.75C84.4212 234.49 81.104 233.07 77.8596 231.497L77.05 231.1L82.65 210.3L82.7 210.15ZM117.5 194.9C118.45 191.65 121.85 189.75 125.15 190.65C126.775 191.094 128.149 192.174 128.965 193.641L129.05 193.8L129.25 194.7L129.55 196.15L129.75 197.2L129.7 197.45L129.55 198.15V198.3L121.05 229.8L121 229.95C119.959 233.099 116.64 234.887 113.438 234.023C110.286 233.173 108.328 230.045 108.92 226.852L108.95 226.7V226.55L117.45 195.05L117.5 194.9ZM65.9 158.2C68.924 160.84 72.4088 163.25 76.2217 165.296L76.7 165.55L69 194.15L68.95 194.3C67.9558 197.525 64.5813 199.378 61.3266 198.487C58.122 197.609 56.1731 194.383 56.8656 191.151L56.9 191L56.95 190.85L65.45 159.35L65.5 159.15L65.9 158.2ZM38 126.2C38.95 123 42.35 121.1 45.65 121.95C48.85 122.836 50.7897 126.098 50.085 129.348L50.05 129.5V129.65L41.55 161.15L41.5 161.3C40.5058 164.525 37.1313 166.378 33.8766 165.487C30.672 164.609 28.7231 161.383 29.4156 158.151L29.45 158V157.85L37.95 126.35L38 126.2ZM228.6 119.05C229.55 115.85 232.95 113.95 236.2 114.8C239.449 115.686 241.39 118.948 240.685 122.15L240.65 122.3V122.5L232.1 154V154.15C231.189 157.491 227.741 159.461 224.4 158.55C221.109 157.652 219.148 154.294 219.961 151L220 150.85L220.05 150.7L228.55 119.2L228.6 119.05ZM27.1 72.75L27.3167 72.7566C27.7498 72.777 28.1798 72.8418 28.6 72.95C31.8492 73.8362 33.7897 77.0975 33.085 80.3477L33.05 80.5L33 80.65L24.5 112.15L24.45 112.3C23.5 115.5 20.1 117.4 16.85 116.55C15.65 116.241 14.5702 115.579 13.75 114.65C15.4182 100.17 19.8428 86.1448 26.7828 73.3316L27.1 72.75ZM207.05 77.2C208.05 74 211.4 72.1 214.7 72.95C217.9 73.8362 219.888 77.0975 219.185 80.3477L219.15 80.5L219.1 80.65L210.6 112.15L210.55 112.3C209.556 115.525 206.181 117.378 202.927 116.487C199.722 115.609 197.773 112.383 198.466 109.151L198.5 109L198.55 108.85L207.05 77.35V77.2ZM56.5 47.25C57.45 44.05 60.85 42.15 64.1 43C67.3492 43.8862 69.2897 47.1475 68.585 50.3499L68.55 50.5L68.5 50.7L60 82.2L59.95 82.35C58.9558 85.5748 55.5813 87.428 52.3266 86.5367C49.122 85.6591 47.1731 82.4328 47.8656 79.2015L47.9 79.05L47.95 78.9L56.45 47.4L56.5 47.25ZM165.7 53.2C166.65 50 170.05 48.1 173.35 48.95C176.55 49.8362 178.49 53.0975 177.785 56.3477L177.75 56.5V56.65L171.05 81.4L170.5 80.95C167.363 78.6456 164.04 76.6073 160.565 74.8561L159.95 74.55L165.65 53.35L165.7 53.2ZM117.75 13.45C117.933 14.3089 117.931 15.1961 117.746 16.0529L117.7 16.25L117.65 16.4L109.15 47.9L109.1 48.05C108.059 51.199 104.74 52.9868 101.538 52.1232C98.3861 51.2731 96.428 48.1451 97.0199 44.9521L97.05 44.8L97.1 44.65L105 15.3L105.85 15.15C109.784 14.3762 113.756 13.8087 117.75 13.45ZM195.95 35.2L196.7 35.75C199.905 38.1443 202.983 40.7031 205.922 43.4163L206.55 44L206.35 44.65L206.3 44.8C205.259 47.949 201.94 49.7368 198.738 48.8732C195.586 48.0231 193.628 44.8951 194.22 41.7021L194.25 41.55L194.3 41.4L195.95 35.2ZM146.5 14.5L147.4 14.65C150.914 15.2426 154.398 15.9992 157.84 16.9172L158.7 17.15L155.55 28.9L155.5 29.05C154.459 32.199 151.14 33.9868 147.938 33.1232C144.786 32.2731 142.828 29.1451 143.42 25.9521L143.45 25.8L143.5 25.65L146.5 14.5Z"
              fill="white"/>
        <path d="M131 93.5C135.418 93.5 139 97.0817 139 101.5C139 105.918 135.418 109.5 131 109.5C126.582 109.5 123 105.918 123 101.5C123 97.0817 126.582 93.5 131 93.5Z"
              fill="black"/>
        <path d="M212.981 255.77L210.084 255.31C155.694 246.683 100.283 246.683 45.8927 255.31L43 255.77V174H213L212.981 255.77Z"
              fill="#9146FF"/>
        <path d="M61.9363 192.325H69.7392V227.753H61.9363V192.325Z" fill="white"/>
        <path d="M79.033 210.141V210.041C79.033 199.972 86.8747 191.72 97.6207 191.72C103.999 191.72 107.844 193.44 111.538 196.576L106.632 202.501C103.898 200.22 101.47 198.908 97.369 198.908C91.6997 198.908 87.1961 203.915 87.1961 209.94V210.041C87.1961 216.519 91.6494 221.271 97.9266 221.271C100.761 221.271 103.29 220.562 105.265 219.149V214.091H97.4154V207.357H112.801V222.742C108.601 226.384 103.225 228.38 97.6672 228.361C86.6346 228.361 79.033 220.62 79.033 210.141Z"
              fill="white"/>
        <path d="M122.319 192.325H136.136C147.269 192.325 154.964 199.969 154.964 209.94V210.041C154.964 220.012 147.269 227.753 136.136 227.753H122.319V192.325ZM130.11 199.361V220.721H136.136C142.51 220.721 146.812 216.419 146.812 210.142V210.041C146.812 203.764 142.51 199.361 136.136 199.361H130.11Z"
              fill="white"/>
        <path d="M163.92 192.325H180.371C184.421 192.325 187.608 193.44 189.633 195.465C190.43 196.248 191.057 197.187 191.474 198.223C191.892 199.259 192.092 200.37 192.061 201.487V201.587C192.061 205.588 189.935 207.814 187.415 209.232C191.504 210.815 194.044 213.178 194.044 217.937V218.038C194.044 224.516 188.781 227.753 180.785 227.753H163.92V192.325ZM184.317 202.803C184.317 200.48 182.497 199.159 179.205 199.159H171.514V206.649H178.702C182.14 206.649 184.317 205.537 184.317 202.904V202.803ZM180.522 213.139H171.514V220.922H180.777C184.216 220.922 186.292 219.707 186.292 217.077V216.976C186.299 214.595 184.522 213.139 180.522 213.139Z"
              fill="white"/>
    </g>
    <defs>
        <clipPath id="clip0_1_19">
            <rect width="256" height="256" fill="white"/>
        </clipPath>
    </defs>
</svg>
